# xmcd
#
# Track frame offsets: 
#        150
#        20920
#        36737
#        53370
#        71810
#        84990
#        102890
#        123002
#        141295
#        161417
#        179095
#        199450
#        229812
#
# Disc length: 3131 seconds
#
# Revision: 3
# Processed by: cddbd v1.5.2PL0 Copyright (c) Steve Scherf et al.
# Submitted via: ExactAudioCopy v0.99pb5
#
DISCID=ba0c390d
DTITLE=Various Artist - 99X Live X 7 - Black and White World
DYEAR=2002
DGENRE=Acoustic
TTITLE0=Live - The Beauty of Gray
TTITLE1=Lifehouse - Hanging By a Moment
TTITLE2=Dexter Freebish - Leaving Town
TTITLE3=Incubus - Drive
TTITLE4=Jimmy Eat World - Middle
TTITLE5=Pete Yorn - Life on a Chain
TTITLE6=David Gray - Babylon
TTITLE7=Dave Matthews - The Space Between
TTITLE8=Josh Joplin Group - Camera One
TTITLE9=Stroke 9 - Letters
TTITLE10=Train - Drops of Jupiter
TTITLE11=Tenacious D - Tribute
TTITLE12=Data Track
EXTD=Live Recordings at an Atlanya, Georgia Radio Station.  Mostly aco
EXTD=ustic renditions
EXTT0=
EXTT1=
EXTT2=
EXTT3=
EXTT4=
EXTT5=
EXTT6=
EXTT7=
EXTT8=
EXTT9=
EXTT10=
EXTT11=
EXTT12=
PLAYORDER=
